<?xml version="1.0" standalone="no"?>
<!DOCTYPE svg PUBLIC "-//W3C//DTD SVG 20010904//EN"
        "http://www.w3.org/TR/2001/REC-SVG-20010904/DTD/svg10.dtd">
<svg version="1.0" xmlns="http://www.w3.org/2000/svg"
     width="512.000000pt" height="512.000000pt" viewBox="0 0 512.000000 512.000000"
     preserveAspectRatio="xMidYMid meet">
    <metadata>
        Created by potrace 1.11, written by Peter Selinger 2001-2013
    </metadata>
    <g transform="translate(0.000000,512.000000) scale(0.100000,-0.100000)"
       fill="#000000" stroke="none">
        <path d="M1630 4461 c-147 -43 -262 -149 -321 -296 l-24 -60 -3 -1733 -2
-1733 480 481 480 480 480 -480 480 -480 0 640 0 640 -42 0 c-203 3 -336 31
-499 109 -192 91 -372 271 -469 469 -81 165 -104 272 -104 467 0 154 10 219
55 345 144 403 539 687 958 689 42 0 82 0 90 0 15 1 10 74 -12 146 -47 160
-197 294 -362 324 -40 8 -243 11 -595 10 -460 -1 -543 -4 -590 -18z"/>
        <path d="M2965 3825 c-319 -58 -570 -275 -679 -585 -61 -172 -57 -404 9 -585
71 -194 224 -369 416 -474 67 -36 190 -78 266 -90 62 -10 259 -7 308 3 366 82
632 350 700 707 20 108 14 287 -14 386 -43 152 -121 285 -230 393 -120 120
-250 193 -431 241 -65 17 -263 19 -345 4z m235 -545 l0 -240 240 0 240 0 0
-80 0 -80 -240 0 -240 0 0 -240 0 -240 -80 0 -80 0 0 240 0 240 -240 0 -240 0
0 80 0 80 240 0 240 0 0 240 0 240 80 0 80 0 0 -240z"/>
    </g>
</svg>
